<svg width="33" height="33" viewBox="0 0 33 33" fill="none" xmlns="http://www.w3.org/2000/svg">
<path d="M21.443 5.78142H11.5567C8.36671 5.78142 5.78125 8.36733 5.78125 11.5569V21.4431C5.78125 24.6331 8.36717 27.2186 11.5572 27.2186H21.4425C24.6325 27.2186 27.2184 24.6327 27.2184 21.4427V11.5569C27.2184 8.36688 24.6325 5.78142 21.4425 5.78142H21.443Z" stroke="#212121" stroke-miterlimit="10"/>
<path d="M16.4998 21.6746C19.3576 21.6746 21.6744 19.3578 21.6744 16.5C21.6744 13.6422 19.3576 11.3254 16.4998 11.3254C13.6419 11.3254 11.3252 13.6422 11.3252 16.5C11.3252 19.3578 13.6419 21.6746 16.4998 21.6746Z" stroke="#212121" stroke-miterlimit="10"/>
<path d="M22.7835 11.3254C23.3958 11.3254 23.8922 10.829 23.8922 10.2167C23.8922 9.60439 23.3958 9.108 22.7835 9.108C22.1712 9.108 21.6748 9.60439 21.6748 10.2167C21.6748 10.829 22.1712 11.3254 22.7835 11.3254Z" fill="#212121"/>
</svg>
