<svg width="33" height="33" viewBox="0 0 33 33" fill="none" xmlns="http://www.w3.org/2000/svg">
<path d="M12.6667 10.75C12.6667 10.9395 12.6105 11.1248 12.5052 11.2824C12.3999 11.44 12.2502 11.5629 12.0751 11.6354C11.9 11.7079 11.7073 11.7269 11.5214 11.6899C11.3355 11.6529 11.1647 11.5617 11.0307 11.4276C10.8967 11.2936 10.8054 11.1229 10.7684 10.937C10.7314 10.7511 10.7504 10.5584 10.8229 10.3833C10.8955 10.2081 11.0183 10.0585 11.1759 9.95318C11.3335 9.84787 11.5188 9.79167 11.7083 9.79167C11.9625 9.79167 12.2063 9.89263 12.386 10.0724C12.5657 10.2521 12.6667 10.4958 12.6667 10.75ZM11.7083 14.1042C11.5813 14.1042 11.4594 14.1546 11.3695 14.2445C11.2796 14.3344 11.2292 14.4563 11.2292 14.5833V22.25C11.2292 22.3771 11.2796 22.499 11.3695 22.5888C11.4594 22.6787 11.5813 22.7292 11.7083 22.7292C11.8354 22.7292 11.9573 22.6787 12.0472 22.5888C12.137 22.499 12.1875 22.3771 12.1875 22.25V14.5833C12.1875 14.4563 12.137 14.3344 12.0472 14.2445C11.9573 14.1546 11.8354 14.1042 11.7083 14.1042ZM18.8958 14.1042C18.3511 14.1036 17.8126 14.2199 17.3167 14.4451C16.8207 14.6704 16.3788 14.9994 16.0208 15.4099V14.5833C16.0208 14.4563 15.9704 14.3344 15.8805 14.2445C15.7906 14.1546 15.6687 14.1042 15.5417 14.1042C15.4146 14.1042 15.2927 14.1546 15.2028 14.2445C15.113 14.3344 15.0625 14.4563 15.0625 14.5833V22.25C15.0625 22.3771 15.113 22.499 15.2028 22.5888C15.2927 22.6787 15.4146 22.7292 15.5417 22.7292C15.6687 22.7292 15.7906 22.6787 15.8805 22.5888C15.9704 22.499 16.0208 22.3771 16.0208 22.25V17.9375C16.0208 17.175 16.3237 16.4437 16.8629 15.9046C17.4021 15.3654 18.1333 15.0625 18.8958 15.0625C19.6583 15.0625 20.3896 15.3654 20.9288 15.9046C21.4679 16.4437 21.7708 17.175 21.7708 17.9375V22.25C21.7708 22.3771 21.8213 22.499 21.9112 22.5888C22.001 22.6787 22.1229 22.7292 22.25 22.7292C22.3771 22.7292 22.499 22.6787 22.5888 22.5888C22.6787 22.499 22.7292 22.3771 22.7292 22.25V17.9375C22.726 16.9218 22.3211 15.9486 21.6029 15.2304C20.8847 14.5122 19.9115 14.1073 18.8958 14.1042ZM28 6.4375V26.5625C28 26.9437 27.8485 27.3094 27.579 27.579C27.3094 27.8485 26.9437 28 26.5625 28H6.4375C6.05625 28 5.69062 27.8485 5.42103 27.579C5.15145 27.3094 5 26.9437 5 26.5625V6.4375C5 6.05625 5.15145 5.69062 5.42103 5.42103C5.69062 5.15145 6.05625 5 6.4375 5H26.5625C26.9437 5 27.3094 5.15145 27.579 5.42103C27.8485 5.69062 28 6.05625 28 6.4375ZM27.0417 6.4375C27.0417 6.31042 26.9912 6.18854 26.9013 6.09868C26.8115 6.00882 26.6896 5.95833 26.5625 5.95833H6.4375C6.31042 5.95833 6.18854 6.00882 6.09868 6.09868C6.00882 6.18854 5.95833 6.31042 5.95833 6.4375V26.5625C5.95833 26.6896 6.00882 26.8115 6.09868 26.9013C6.18854 26.9912 6.31042 27.0417 6.4375 27.0417H26.5625C26.6896 27.0417 26.8115 26.9912 26.9013 26.9013C26.9912 26.8115 27.0417 26.6896 27.0417 26.5625V6.4375Z" fill="#212121"/>
</svg>
