<svg width="217" height="76" viewBox="0 0 217 76" fill="none" xmlns="http://www.w3.org/2000/svg">
<path d="M104.995 34.6011C104.333 34.6011 103.766 34.4744 103.296 34.221C102.826 33.9628 102.466 33.5899 102.217 33.1023C101.967 32.6146 101.843 32.0242 101.843 31.331V27.2362C101.843 26.543 101.967 25.9526 102.217 25.4649C102.466 24.9725 102.826 24.5996 103.296 24.3462C103.766 24.0881 104.333 23.959 104.995 23.959C105.647 23.959 106.197 24.0881 106.643 24.3462C107.089 24.6044 107.434 24.9964 107.679 25.5223C107.929 26.0434 108.077 26.7056 108.125 27.5087H106.197C106.168 27.1311 106.103 26.8203 106.002 26.5765C105.906 26.3327 105.774 26.151 105.606 26.0315C105.439 25.9072 105.235 25.845 104.995 25.845C104.74 25.845 104.522 25.9 104.34 26.01C104.158 26.1151 104.018 26.2729 103.922 26.4833C103.826 26.6888 103.778 26.9398 103.778 27.2362V31.331C103.778 31.6274 103.826 31.8784 103.922 32.084C104.018 32.2895 104.158 32.4473 104.34 32.5573C104.522 32.6624 104.74 32.715 104.995 32.715C105.235 32.715 105.439 32.6553 105.606 32.5358C105.779 32.4162 105.914 32.2346 106.009 31.9907C106.11 31.7421 106.173 31.429 106.197 31.0513H108.125C108.073 31.8545 107.924 32.519 107.679 33.0449C107.434 33.566 107.089 33.9557 106.643 34.2138C106.197 34.472 105.647 34.6011 104.995 34.6011Z" fill="#989898"/>
<path d="M122.973 24.0667H124.225L127.478 34.4936H125.527L123.599 27.516L121.67 34.4936H119.727L122.973 24.0667ZM121.533 31.0658H125.715V32.8442H121.533V31.0658Z" fill="#989898"/>
<path d="M140.728 28.6491H143.326C143.518 28.6491 143.684 28.606 143.823 28.52C143.967 28.4291 144.077 28.3024 144.154 28.1399C144.235 27.9774 144.276 27.7885 144.276 27.5734V26.9638C144.276 26.7391 144.238 26.5455 144.161 26.383C144.084 26.2156 143.974 26.0889 143.83 26.0029C143.691 25.912 143.523 25.8666 143.326 25.8666H140.728V24.0667H143.326C143.912 24.0667 144.42 24.179 144.852 24.4037C145.288 24.6236 145.622 24.9439 145.852 25.3646C146.087 25.7806 146.205 26.2706 146.205 26.8347V27.7096C146.205 28.269 146.087 28.7542 145.852 29.1654C145.617 29.5765 145.284 29.8945 144.852 30.1192C144.42 30.3391 143.912 30.449 143.326 30.449H140.728V28.6491ZM139.865 24.0667H141.743V34.4936H139.865V24.0667Z" fill="#989898"/>
<path d="M160.506 34.4936H158.591V24.0667H160.506V34.4936Z" fill="#989898"/>
<path d="M174.418 24.9272H176.297V34.4936H174.418V24.9272ZM172.13 24.0667H178.585V25.8666H172.13V24.0667Z" fill="#989898"/>
<path d="M192.273 24.0667H193.526L196.779 34.4936H194.828L192.899 27.516L190.971 34.4936H189.028L192.273 24.0667ZM190.834 31.0658H195.015V32.8442H190.834V31.0658Z" fill="#989898"/>
<path d="M209.165 24.0667H211.044V34.4936H209.165V24.0667ZM209.971 32.6936H214.923V34.4936H209.971V32.6936Z" fill="#989898"/>
<path d="M102.821 46.2758H105.419C105.611 46.2758 105.777 46.2327 105.916 46.1467C106.06 46.0559 106.17 45.9292 106.247 45.7666C106.329 45.6041 106.369 45.4152 106.369 45.2001V44.5905C106.369 44.3658 106.331 44.1722 106.254 44.0097C106.178 43.8423 106.067 43.7156 105.923 43.6296C105.784 43.5388 105.616 43.4933 105.419 43.4933H102.821V41.6934H105.419C106.005 41.6934 106.513 41.8057 106.945 42.0304C107.382 42.2503 107.715 42.5706 107.946 42.9914C108.181 43.4073 108.298 43.8973 108.298 44.4615V45.3363C108.298 45.8957 108.181 46.3809 107.946 46.7921C107.71 47.2032 107.377 47.5212 106.945 47.7459C106.513 47.9658 106.005 48.0757 105.419 48.0757H102.821V46.2758ZM101.958 41.6934H103.836V52.1203H101.958V41.6934Z" fill="#989898"/>
<path d="M119.283 41.6934H120.536L123.789 52.1203H121.838L119.909 45.1427L117.981 52.1203H116.038L119.283 41.6934ZM117.844 48.6925H122.025V50.4709H117.844V48.6925Z" fill="#989898"/>
<path d="M133.435 46.0177H136.198C136.376 46.0177 136.529 45.9794 136.659 45.903C136.793 45.8217 136.896 45.7093 136.968 45.5659C137.04 45.4225 137.076 45.2528 137.076 45.0568V44.4759C137.076 44.2751 137.04 44.1006 136.968 43.9524C136.901 43.7994 136.8 43.6847 136.666 43.6082C136.532 43.5269 136.376 43.4863 136.198 43.4863H133.435V41.6863H136.22C136.791 41.6863 137.285 41.7962 137.702 42.0162C138.125 42.2361 138.448 42.554 138.674 42.9699C138.899 43.3811 139.012 43.8663 139.012 44.4257V45.0352C139.012 45.6042 138.899 46.099 138.674 46.5197C138.448 46.9356 138.125 47.2559 137.702 47.4806C137.28 47.7053 136.786 47.8177 136.22 47.8177H133.435V46.0177ZM132.643 41.6863H134.5V52.1204H132.643V41.6863ZM135.263 47.495L137.134 47.1651L139.379 52.1204H137.227L135.263 47.495Z" fill="#989898"/>
<path d="M149.766 42.5539H151.644V52.1203H149.766V42.5539ZM147.478 41.6934H153.933V43.4933H147.478V41.6934Z" fill="#989898"/>
<path d="M162.248 41.6934H164.155L167.329 49.1658L167.149 49.3952V41.6934H168.905V52.1131H166.983L163.824 44.8989L164.004 44.6622V52.1131H162.248V41.6934Z" fill="#989898"/>
<path d="M178.874 41.6934H180.752V52.1203H178.874V41.6934ZM179.622 50.306H184.703V52.1203H179.622V50.306ZM179.622 46.0319H184.127V47.8463H179.622V46.0319ZM179.622 41.6934H184.703V43.5077H179.622V41.6934Z" fill="#989898"/>
<path d="M194.781 46.0177H197.545C197.722 46.0177 197.876 45.9794 198.005 45.903C198.14 45.8217 198.243 45.7093 198.315 45.5659C198.387 45.4225 198.423 45.2528 198.423 45.0568V44.4759C198.423 44.2751 198.387 44.1006 198.315 43.9524C198.248 43.7994 198.147 43.6847 198.013 43.6082C197.878 43.5269 197.722 43.4863 197.545 43.4863H194.781V41.6863H197.566C198.137 41.6863 198.631 41.7962 199.049 42.0162C199.471 42.2361 199.795 42.554 200.02 42.9699C200.246 43.3811 200.359 43.8663 200.359 44.4257V45.0352C200.359 45.6042 200.246 46.099 200.02 46.5197C199.795 46.9356 199.471 47.2559 199.049 47.4806C198.627 47.7053 198.132 47.8177 197.566 47.8177H194.781V46.0177ZM193.99 41.6863H195.846V52.1204H193.99V41.6863ZM196.609 47.495L198.48 47.1651L200.726 52.1204H198.574L196.609 47.495Z" fill="#989898"/>
<path d="M212.502 52.228C211.907 52.228 211.386 52.142 210.94 51.9699C210.499 51.793 210.132 51.5348 209.839 51.1954C209.546 50.8511 209.34 50.4233 209.22 49.9117L210.969 49.1372C211.103 49.5579 211.309 49.8759 211.588 50.091C211.871 50.3061 212.211 50.4137 212.61 50.4137C213.022 50.4137 213.344 50.3229 213.574 50.1412C213.804 49.9595 213.919 49.7061 213.919 49.381V48.9149C213.919 48.6807 213.852 48.4894 213.718 48.3412C213.584 48.1882 213.409 48.0663 213.193 47.9755C212.982 47.8847 212.698 47.7843 212.343 47.6743C212.329 47.6695 212.315 47.6671 212.3 47.6671C212.291 47.6623 212.281 47.6576 212.271 47.6528L212.185 47.6241C211.614 47.452 211.146 47.2775 210.782 47.1006C210.422 46.9189 210.112 46.6393 209.853 46.2616C209.599 45.8791 209.472 45.3676 209.472 44.7269V44.4544C209.472 43.852 209.597 43.3357 209.846 42.9054C210.1 42.4752 210.467 42.1477 210.947 41.923C211.432 41.6983 212.017 41.5859 212.703 41.5859C213.221 41.5859 213.677 41.6696 214.071 41.8369C214.469 42.0043 214.8 42.2529 215.064 42.5827C215.332 42.9126 215.529 43.3238 215.654 43.8162L213.999 44.5978C213.86 44.201 213.67 43.8998 213.43 43.6943C213.19 43.4887 212.912 43.3859 212.595 43.3859C212.197 43.3859 211.888 43.4696 211.667 43.6369C211.451 43.8042 211.343 44.0385 211.343 44.3397V44.6839C211.343 44.9421 211.413 45.1524 211.552 45.315C211.696 45.4775 211.873 45.6066 212.084 45.7022C212.3 45.7978 212.598 45.903 212.977 46.0177C213.001 46.0225 213.027 46.0297 213.056 46.0393C213.089 46.0488 213.121 46.0608 213.149 46.0751C213.173 46.0799 213.195 46.0871 213.214 46.0966C213.233 46.1014 213.255 46.1062 213.279 46.111C213.802 46.2735 214.234 46.448 214.574 46.6345C214.92 46.8209 215.208 47.0982 215.438 47.4663C215.668 47.8297 215.783 48.3125 215.783 48.9149V49.3595C215.783 49.9619 215.654 50.4782 215.395 50.9085C215.141 51.3388 214.766 51.6663 214.272 51.891C213.783 52.1157 213.193 52.228 212.502 52.228Z" fill="#989898"/>
<path d="M82.7023 0H0V76H82.7023V0Z" fill="url(#paint0_linear_205_1114)"/>
<path d="M7.1115 36.9961H9.44136C9.59102 36.9961 9.72045 36.9639 9.82967 36.8994C9.94292 36.8309 10.0299 36.7362 10.0906 36.6152C10.1512 36.4943 10.1816 36.3512 10.1816 36.186V35.6963C10.1816 35.527 10.1512 35.3799 10.0906 35.2549C10.0339 35.126 9.94899 35.0292 9.83573 34.9647C9.72248 34.8962 9.59102 34.862 9.44136 34.862H7.1115V33.3445H9.45956C9.9409 33.3445 10.3575 33.4372 10.7094 33.6226C11.0654 33.808 11.3384 34.076 11.5285 34.4267C11.7186 34.7733 11.8137 35.1824 11.8137 35.654V36.1679C11.8137 36.6475 11.7186 37.0646 11.5285 37.4193C11.3384 37.77 11.0654 38.04 10.7094 38.2295C10.3535 38.4189 9.93686 38.5136 9.45956 38.5136H7.1115V36.9961ZM6.44409 33.3445H8.00947V42.1411H6.44409V33.3445ZM8.6526 38.2415L10.2301 37.9634L12.1231 42.1411H10.309L8.6526 38.2415Z" fill="#FEFEFE"/>
<path d="M15.6069 33.3503H17.1905V42.1409H15.6069V33.3503ZM16.2379 40.6113H20.5215V42.1409H16.2379V40.6113ZM16.2379 37.008H20.0361V38.5376H16.2379V37.008ZM16.2379 33.3503H20.5215V34.8799H16.2379V33.3503Z" fill="#FEFEFE"/>
<path d="M25.0128 40.6234H26.6389C27.011 40.6234 27.2982 40.5267 27.5005 40.3332C27.7067 40.1397 27.8099 39.8677 27.8099 39.517V35.9682C27.8099 35.6175 27.7067 35.3475 27.5005 35.158C27.2982 34.9646 27.011 34.8678 26.6389 34.8678H25.0128V33.3503H26.6935C27.2719 33.3503 27.7654 33.4511 28.1739 33.6526C28.5865 33.8501 28.9 34.1423 29.1144 34.5293C29.3287 34.9122 29.4359 35.3716 29.4359 35.9077V39.5775C29.4359 40.1014 29.3308 40.5549 29.1204 40.9378C28.9101 41.3207 28.5986 41.6169 28.1861 41.8265C27.7775 42.0361 27.278 42.1409 26.6874 42.1409H25.0128V40.6234ZM24.0967 33.3503H25.6803V42.1409H24.0967V33.3503Z" fill="#FEFEFE"/>
<path d="M33.9882 40.6355H36.0571C36.3403 40.6355 36.5587 40.5649 36.7124 40.4239C36.8702 40.2828 36.949 40.0853 36.949 39.8314V39.2329C36.949 39.0515 36.9126 38.8963 36.8398 38.7673C36.7711 38.6343 36.6679 38.5336 36.5304 38.4651C36.3969 38.3965 36.2351 38.3623 36.045 38.3623H33.9882V36.869H36.0268C36.2857 36.869 36.4859 36.7984 36.6275 36.6574C36.7731 36.5123 36.8459 36.3087 36.8459 36.0468V35.5752C36.8459 35.3454 36.7731 35.1681 36.6275 35.0432C36.4859 34.9142 36.2857 34.8497 36.0268 34.8497H33.9882V33.3503H36.13C36.6153 33.3503 37.0299 33.433 37.3738 33.5982C37.7176 33.7594 37.9785 33.9972 38.1564 34.3116C38.3344 34.626 38.4234 35.0049 38.4234 35.4482V35.9198C38.4234 36.2221 38.3648 36.4901 38.2475 36.7239C38.1302 36.9576 37.9582 37.1511 37.7317 37.3043C37.5052 37.4534 37.2342 37.5542 36.9187 37.6066C37.2585 37.6509 37.5497 37.7537 37.7924 37.9149C38.0351 38.0721 38.2191 38.2776 38.3445 38.5316C38.474 38.7855 38.5387 39.0817 38.5387 39.4203V40.0249C38.5387 40.4722 38.4497 40.8551 38.2717 41.1736C38.0937 41.4879 37.8329 41.7277 37.489 41.893C37.1452 42.0583 36.7326 42.1409 36.2513 42.1409H33.9882V40.6355ZM33.1934 33.3503H34.7769V42.1409H33.1934V33.3503Z" fill="#FEFEFE"/>
<path d="M42.9448 36.9961H45.2746C45.4243 36.9961 45.5537 36.9639 45.6629 36.8994C45.7762 36.8309 45.8631 36.7362 45.9238 36.6152C45.9845 36.4943 46.0148 36.3512 46.0148 36.186V35.6963C46.0148 35.527 45.9845 35.3799 45.9238 35.2549C45.8672 35.126 45.7822 35.0292 45.669 34.9647C45.5557 34.8962 45.4243 34.862 45.2746 34.862H42.9448V33.3445H45.2928C45.7742 33.3445 46.1908 33.4372 46.5427 33.6226C46.8986 33.808 47.1717 34.076 47.3618 34.4267C47.5519 34.7733 47.6469 35.1824 47.6469 35.654V36.1679C47.6469 36.6475 47.5519 37.0646 47.3618 37.4193C47.1717 37.77 46.8986 38.04 46.5427 38.2295C46.1867 38.4189 45.7701 38.5136 45.2928 38.5136H42.9448V36.9961ZM42.2773 33.3445H43.8427V42.1411H42.2773V33.3445ZM44.4859 38.2415L46.0634 37.9634L47.9564 42.1411H46.1422L44.4859 38.2415Z" fill="#FEFEFE"/>
<path d="M53.8433 42.2317C53.2892 42.2317 52.8058 42.1248 52.3932 41.9112C51.9806 41.6936 51.6631 41.3853 51.4406 40.9862C51.2182 40.5872 51.1069 40.1177 51.1069 39.5776V35.9138C51.1069 35.3738 51.2182 34.9042 51.4406 34.5052C51.6631 34.1021 51.9806 33.7938 52.3932 33.5802C52.8058 33.3666 53.2892 33.2598 53.8433 33.2598C54.4015 33.2598 54.8869 33.3666 55.2995 33.5802C55.712 33.7938 56.0296 34.1021 56.252 34.5052C56.4745 34.9042 56.5857 35.3738 56.5857 35.9138V39.5776C56.5857 40.1177 56.4745 40.5872 56.252 40.9862C56.0296 41.3853 55.712 41.6936 55.2995 41.9112C54.8869 42.1248 54.4015 42.2317 53.8433 42.2317ZM53.8433 40.6537C54.0698 40.6537 54.268 40.6074 54.4379 40.5147C54.6078 40.4179 54.7372 40.2829 54.8262 40.1096C54.9152 39.9363 54.9597 39.7327 54.9597 39.499V35.9804C54.9597 35.7506 54.9152 35.5491 54.8262 35.3758C54.7372 35.2025 54.6078 35.0695 54.4379 34.9768C54.268 34.88 54.0698 34.8317 53.8433 34.8317C53.6168 34.8317 53.4186 34.88 53.2487 34.9768C53.0829 35.0695 52.9555 35.2025 52.8665 35.3758C52.7775 35.5491 52.733 35.7506 52.733 35.9804V39.499C52.733 39.7327 52.7775 39.9363 52.8665 40.1096C52.9555 40.2829 53.0829 40.4179 53.2487 40.5147C53.4186 40.6074 53.6168 40.6537 53.8433 40.6537Z" fill="#FEFEFE"/>
<path d="M62.5162 42.2317C61.962 42.2317 61.4786 42.1248 61.0661 41.9112C60.6535 41.6936 60.336 41.3853 60.1135 40.9862C59.891 40.5872 59.7798 40.1177 59.7798 39.5776V35.9138C59.7798 35.3738 59.891 34.9042 60.1135 34.5052C60.336 34.1021 60.6535 33.7938 61.0661 33.5802C61.4786 33.3666 61.962 33.2598 62.5162 33.2598C63.0744 33.2598 63.5597 33.3666 63.9723 33.5802C64.3849 33.7938 64.7024 34.1021 64.9249 34.5052C65.1474 34.9042 65.2586 35.3738 65.2586 35.9138V39.5776C65.2586 40.1177 65.1474 40.5872 64.9249 40.9862C64.7024 41.3853 64.3849 41.6936 63.9723 41.9112C63.5597 42.1248 63.0744 42.2317 62.5162 42.2317ZM62.5162 40.6537C62.7427 40.6537 62.9409 40.6074 63.1108 40.5147C63.2806 40.4179 63.4101 40.2829 63.4991 40.1096C63.5881 39.9363 63.6326 39.7327 63.6326 39.499V35.9804C63.6326 35.7506 63.5881 35.5491 63.4991 35.3758C63.4101 35.2025 63.2806 35.0695 63.1108 34.9768C62.9409 34.88 62.7427 34.8317 62.5162 34.8317C62.2896 34.8317 62.0914 34.88 61.9216 34.9768C61.7557 35.0695 61.6283 35.2025 61.5393 35.3758C61.4503 35.5491 61.4058 35.7506 61.4058 35.9804V39.499C61.4058 39.7327 61.4503 39.9363 61.5393 40.1096C61.6283 40.2829 61.7557 40.4179 61.9216 40.5147C62.0914 40.6074 62.2896 40.6537 62.5162 40.6537Z" fill="#FEFEFE"/>
<path d="M69.9307 38.3925L72.5579 33.3503H74.4509L70.0339 40.7987L69.9307 38.3925ZM68.8325 33.3503H70.4161V42.1409H68.8325V33.3503ZM70.9379 37.5159L72.1696 36.6151L74.7785 42.1409H72.9644L70.9379 37.5159Z" fill="#FEFEFE"/>
<defs>
<linearGradient id="paint0_linear_205_1114" x1="-2.42631" y1="-12.1426" x2="82.3873" y2="76.3021" gradientUnits="userSpaceOnUse">
<stop stop-color="#BB2322"/>
<stop offset="1" stop-color="#A62421"/>
</linearGradient>
</defs>
</svg>
